{"title":"Portrait of the Artist (2014) Le Dos Rouge DVDRip Xvid Eng Subs-","uid":14468236,"size":735088640,"categoryP":"video","categoryS":"movies","magnet":"?xt=urn:btih:39f7eabf8b6bdd1e77ba5c9c462751e088aef92c&amp;dn=Portrait+of+the+Artist+%282014%29+Le+Dos+Rouge+DVDRip+Xvid+Eng+Subs-&amp;tr=udp%3A%2F%2Ftracker.leechers-paradise.org%3A6969&amp;tr=udp%3A%2F%2Fzer0day.ch%3A1337&amp;tr=udp%3A%2F%2Fopen.demonii.com%3A1337&amp;tr=udp%3A%2F%2Ftracker.coppersurfer.tk%3A6969&amp;tr=udp%3A%2F%2Fexodus.desync.com%3A6969","seeders":0,"leechers":1,"uploader":"Pongydog","files":1,"time":1461882476,"description":"http://www.imdb.com/title/tt3841450/\r\n\r\n\r\nA famous filmmaker works on his next film, which will focus on monstrosity. He is obsessed by the idea of finding a painting that will be central to the film and will crystallize all the power and beauty of monsters. But what he doesn't show to anyone, not even his wife, is the mark on his back that keeps getting bigger. This red mark worries him, upsets him, and seems to want to tell him something...\r\n\r\n\r\nDirector: Antoine Barraud \r\nWriter: Antoine Barraud \r\n\r\nBertrand Bonello   ...  \r\nBertrand \r\n \r\nJeanne Balibar  Jeanne Balibar   ...  \r\nCélia Bhy \r\n \r\nGéraldine Pailhas  Géraldine Pailhas   ...  \r\nCélia Bhy \r\n \r\nJoana Preiss  Joana Preiss   ...  \r\nBarbara, dite Barbe  \r\n\r\nGeneral\r\nComplete name                            : C:LE_DOS_ROUGEVIDEO_TSPortrait of the Artist (2014) Le Dos Rouge DVDRip Xvid Eng Subs-item.avi\r\nFormat                                   : AVI\r\nFormat/Info                              : Audio Video Interleave\r\nFile size                                : 701 MiB\r\nDuration                                 : 2h 5mn\r\nOverall bit rate                         : 782 Kbps\r\nWriting application                      : VirtualDubMod 1.5.4.1 (build 2178/release)\r\nWriting library                          : VirtualDubMod build 2178/release\r\n\r\nVideo\r\nID                                       : 0\r\nFormat                                   : MPEG-4 Visual\r\nFormat profile                           : Advanced   \r\nFormat settings, BVOP                    : 1\r\nFormat settings, QPel                    : No\r\nFormat settings, GMC                     : No warppoints\r\nFormat settings, Matrix                  : Custom\r\nCodec ID                                 : XVID\r\nCodec ID/Hint                            : XviD\r\nDuration                                 : 2h 5mn\r\nBit rate                                 : 647 Kbps\r\nWidth                                    : 624 pixels\r\nHeight                                   : 352 pixels\r\nDisplay aspect ratio                     : 16:9\r\nFrame rate                               : 25.000 fps\r\nColor space                              : YUV\r\nChroma subsampling                       : 4:2:0\r\nBit depth                                : 8 bits\r\nScan type                                : Progressive\r\nCompression mode                         : Lossy\r\nBits/(Pixel*Frame)                       : 0.118\r\nStream size                              : 580 MiB (83%)\r\nWriting library                          : XviD 67\r\n\r\nAudio\r\nID                                       : 1\r\nFormat                                   : MPEG Audio\r\nFormat version                           : Version 1\r\nFormat profile                           : Layer 3\r\nMode                                     : Joint stereo\r\nMode extension                           : MS Stereo\r\nCodec ID                                 : 55\r\nCodec ID/Hint                            : MP3\r\nDuration                                 : 2h 5mn\r\nBit rate mode                            : Constant\r\nBit rate                                 : 128 Kbps\r\nChannel(s)                               : 2 channels\r\nSampling rate                            : 48.0 KHz\r\nCompression mode                         : Lossy\r\nStream size                              : 115 MiB (16%)\r\nAlignment                                : Aligned on interleaves\r\nInterleave, duration                     : 80 ms (2.00 video frames)\r\nInterleave, preload duration             : 504 ms\r\nWriting library                          : LAME3.98r\r\nEncoding settings                        : -m j -V 4 -q 2 -lowpass 17 -b 128\r\nLanguage                                 : Français","torrent":{"xt":"urn:btih:39f7eabf8b6bdd1e77ba5c9c462751e088aef92c","amp;dn":"Portrait+of+the+Artist+%282014%29+Le+Dos+Rouge+DVDRip+Xvid+Eng+Subs-","amp;tr":["udp%3A%2F%2Ftracker.leechers-paradise.org%3A6969","udp%3A%2F%2Fzer0day.ch%3A1337","udp%3A%2F%2Fopen.demonii.com%3A1337","udp%3A%2F%2Ftracker.coppersurfer.tk%3A6969","udp%3A%2F%2Fexodus.desync.com%3A6969"],"infoHash":"39f7eabf8b6bdd1e77ba5c9c462751e088aef92c","infoHashBuffer":{"type":"Buffer","data":[57,247,234,191,139,107,221,30,119,186,92,156,70,39,81,224,136,174,249,44]},"announce":[],"urlList":[]}}